<svg width="186" height="42" viewBox="0 0 186 42" fill="none" xmlns="http://www.w3.org/2000/svg">
<mask id="path-1-outside-1_178_264" maskUnits="userSpaceOnUse" x="0" y="0" width="186" height="42" fill="black">
<rect fill="white" width="186" height="42"/>
<path d="M21.0412 40.0689C19.4759 40.0689 17.7149 39.9865 15.7583 39.8216C15.0875 39.7667 14.249 39.7117 13.2427 39.6568C12.2365 39.6018 11.0905 39.5744 9.8047 39.5744L4.8573 39.6568C3.96285 39.7117 2.73299 39.7392 1.16771 39.7392C1.0559 39.7392 1 39.5744 1 39.2447C1 38.915 1.0559 38.7501 1.16771 38.7501C3.12431 38.7501 4.54983 38.6128 5.44428 38.338C6.33872 38.0633 6.95365 37.5413 7.28907 36.772C7.62449 35.9477 7.79219 34.7114 7.79219 33.0629V7.84118C7.79219 6.1927 7.62449 4.98382 7.28907 4.21453C6.95365 3.44524 6.33872 2.92322 5.44428 2.64848C4.54983 2.31878 3.15226 2.15393 1.25156 2.15393C1.13976 2.15393 1.08385 1.98909 1.08385 1.65939C1.08385 1.3297 1.13976 1.16485 1.25156 1.16485L4.94115 1.24727C6.95365 1.35717 8.57483 1.41212 9.8047 1.41212C11.5377 1.41212 13.2707 1.32969 15.0037 1.16485C17.2398 1.05495 18.9169 1 20.0349 1C24.7308 1 28.7837 1.82424 32.1938 3.47271C35.6039 5.12119 38.2033 7.40159 39.9922 10.3139C41.7811 13.2262 42.6756 16.5232 42.6756 20.2048C42.6756 23.9963 41.7532 27.4031 39.9084 30.4253C38.0636 33.4475 35.4921 35.8103 32.1938 37.5138C28.9514 39.2172 25.2339 40.0689 21.0412 40.0689ZM20.0349 39.0798C25.5134 39.0798 29.79 37.5412 32.8646 34.4641C35.9952 31.332 37.5605 26.8811 37.5605 21.1114C37.5605 15.5615 36.0511 11.0008 33.0323 7.42906C30.0136 3.80241 25.4575 1.98908 19.3641 1.98908C16.6248 1.98908 14.6962 2.42868 13.5781 3.30787C12.516 4.18706 11.9849 5.75311 11.9849 8.00603V32.1562C11.9849 34.6839 12.516 36.4697 13.5781 37.5138C14.6962 38.5578 16.8485 39.0798 20.0349 39.0798Z"/>
<path d="M70.4537 4.16721C71.7974 4.16721 73.0496 4.52744 74.2101 5.24788C75.4316 5.90829 76.0424 6.68877 76.0424 7.58933C76.0424 8.1897 75.7981 8.73004 75.3095 9.21033C74.8819 9.69063 74.2406 9.93078 73.3855 9.93078C72.7747 9.93078 72.225 9.78068 71.7364 9.4805C71.2477 9.12028 70.9423 8.91015 70.8202 8.85011C69.6597 7.94955 68.4992 7.49928 67.3387 7.49928C66.4836 7.49928 65.5674 7.8595 64.5901 8.57994C63.6739 9.30039 62.2386 10.8313 60.284 13.1728V32.4447C60.284 34.2458 60.4978 35.5967 60.9254 36.4972C61.3529 37.3377 62.1775 37.9081 63.3991 38.2083C64.6817 38.5085 66.6973 38.6586 69.4459 38.6586C69.6291 38.6586 69.7207 38.8387 69.7207 39.1989C69.7207 39.5591 69.6291 39.7392 69.4459 39.7392C67.4914 39.7392 65.9338 39.7092 64.7733 39.6492L58.1768 39.5591L53.321 39.6492C52.527 39.7092 51.4276 39.7392 50.0228 39.7392C49.8395 39.7392 49.7479 39.5591 49.7479 39.1989C49.7479 38.8387 49.8395 38.6586 50.0228 38.6586C51.794 38.6586 53.0767 38.5085 53.8707 38.2083C54.6648 37.9081 55.2145 37.3377 55.5199 36.4972C55.8253 35.5967 55.978 34.2458 55.978 32.4447V14.4336C55.978 12.3323 55.7336 10.8313 55.245 9.93078C54.7564 9.03022 53.9013 8.57994 52.6797 8.57994C51.7024 8.57994 49.9922 9.03022 47.5491 9.93078H47.3658C47.1215 9.93078 46.9383 9.8107 46.8161 9.57056C46.755 9.27037 46.8466 9.06024 47.091 8.94017L57.2606 4.25727C57.3828 4.19723 57.5355 4.16721 57.7187 4.16721C58.2074 4.16721 58.7571 4.85764 59.3678 6.2385C59.9786 7.55931 60.284 9.27037 60.284 11.3717V11.912C62.7883 8.91015 64.7733 6.86888 66.2392 5.78822C67.7051 4.70755 69.11 4.16721 70.4537 4.16721Z"/>
<path d="M109.64 35.7005C109.792 35.7005 109.919 35.8002 110.02 35.9996C110.172 36.1492 110.198 36.2988 110.096 36.4484C106.495 39.2406 102.563 40.6367 98.3022 40.6367C94.7514 40.6367 91.7078 39.814 89.1714 38.1686C86.6858 36.4733 84.8089 34.2794 83.5408 31.5869C82.2726 28.8944 81.6385 26.0024 81.6385 22.911C81.6385 19.4706 82.4501 16.3044 84.0734 13.4124C85.7474 10.4706 87.9793 8.15205 90.7693 6.45677C93.5593 4.71162 96.5775 3.83905 99.824 3.83905C103.121 3.83905 105.581 4.76148 107.205 6.60635C108.879 8.40136 109.716 10.8944 109.716 14.0855C109.716 14.9332 109.411 15.357 108.803 15.357L86.5083 15.4318C86.1532 16.8279 85.9756 18.4983 85.9756 20.4429C85.9756 23.7836 86.559 26.8002 87.7257 29.4927C88.9432 32.1852 90.6679 34.3293 92.8998 35.9248C95.1318 37.4705 97.7442 38.2434 100.737 38.2434C104.288 38.2434 107.23 37.3957 109.564 35.7005H109.64ZM97.5413 5.33489C95.005 5.33489 92.773 6.13267 90.8454 7.72823C88.9178 9.32379 87.5482 11.5925 86.7365 14.5343L105.15 14.1603C105.252 11.3182 104.643 9.14928 103.324 7.65344C102.056 6.10774 100.128 5.33489 97.5413 5.33489Z"/>
<path d="M151.15 4.73655C151.252 4.73655 151.302 4.88613 151.302 5.1853C151.302 5.48447 151.252 5.63405 151.15 5.63405C149.628 5.63405 148.36 6.00801 147.346 6.75593C146.382 7.45399 145.494 8.80025 144.683 10.7947L133.041 39.6644C132.99 39.8639 132.711 39.9636 132.204 39.9636C131.697 39.9636 131.418 39.8639 131.367 39.6644L117.595 10.9443C116.58 8.85011 115.692 7.45399 114.931 6.75593C114.171 6.00801 113.131 5.63405 111.812 5.63405C111.66 5.63405 111.583 5.48447 111.583 5.1853C111.583 4.88613 111.66 4.73655 111.812 4.73655L114.627 4.81134C115.845 4.91106 116.758 4.96092 117.366 4.96092C118.584 4.96092 120.106 4.91106 121.932 4.81134L124.899 4.73655C125.001 4.73655 125.051 4.88613 125.051 5.1853C125.051 5.48447 125.001 5.63405 124.899 5.63405C122.261 5.63405 120.943 6.4069 120.943 7.95261C120.943 8.65067 121.145 9.39858 121.551 10.1964L133.65 34.8029L143.237 10.346C143.541 9.49831 143.693 8.77532 143.693 8.17698C143.693 7.27948 143.288 6.63128 142.476 6.23239C141.664 5.8335 140.345 5.63405 138.519 5.63405C138.367 5.63405 138.291 5.48447 138.291 5.1853C138.291 4.88613 138.367 4.73655 138.519 4.73655L141.335 4.81134C142.755 4.91106 144.049 4.96092 145.215 4.96092C146.078 4.96092 147.117 4.91106 148.335 4.81134L151.15 4.73655Z"/>
<path d="M164.936 41C161.332 41 158.492 39.7392 156.415 37.2177C154.399 34.6961 153.392 31.3941 153.392 27.3115C153.392 25.4504 153.544 23.7994 153.85 22.3585C154.522 18.8763 155.804 15.7244 157.698 12.9026C159.591 10.0809 161.882 7.8595 164.569 6.2385C167.257 4.61749 170.097 3.80699 173.09 3.80699C176.876 3.80699 179.808 5.06777 181.885 7.58933C183.962 10.0509 185 13.2628 185 17.2253C185 18.9063 184.817 20.6174 184.45 22.3585C183.717 26.0207 182.343 29.2928 180.327 32.1745C178.312 34.9963 175.93 37.1876 173.181 38.7486C170.494 40.2495 167.745 41 164.936 41ZM168.142 38.7486C170.708 38.7486 173.029 37.6379 175.105 35.4165C177.182 33.1952 178.587 30.1633 179.32 26.3209C179.625 24.3997 179.778 22.6587 179.778 21.0977C179.778 16.9551 178.953 13.4129 177.304 10.4711C175.716 7.46925 173.426 5.96833 170.433 5.96833C167.806 5.96833 165.455 7.10903 163.378 9.39044C161.301 11.6118 159.866 14.6437 159.072 18.4861C158.705 20.2872 158.522 22.1183 158.522 23.9795C158.522 28.002 159.377 31.4841 161.088 34.4259C162.798 37.3077 165.149 38.7486 168.142 38.7486Z"/>
</mask>
<path d="M21.0412 40.0689C19.4759 40.0689 17.7149 39.9865 15.7583 39.8216C15.0875 39.7667 14.249 39.7117 13.2427 39.6568C12.2365 39.6018 11.0905 39.5744 9.8047 39.5744L4.8573 39.6568C3.96285 39.7117 2.73299 39.7392 1.16771 39.7392C1.0559 39.7392 1 39.5744 1 39.2447C1 38.915 1.0559 38.7501 1.16771 38.7501C3.12431 38.7501 4.54983 38.6128 5.44428 38.338C6.33872 38.0633 6.95365 37.5413 7.28907 36.772C7.62449 35.9477 7.79219 34.7114 7.79219 33.0629V7.84118C7.79219 6.1927 7.62449 4.98382 7.28907 4.21453C6.95365 3.44524 6.33872 2.92322 5.44428 2.64848C4.54983 2.31878 3.15226 2.15393 1.25156 2.15393C1.13976 2.15393 1.08385 1.98909 1.08385 1.65939C1.08385 1.3297 1.13976 1.16485 1.25156 1.16485L4.94115 1.24727C6.95365 1.35717 8.57483 1.41212 9.8047 1.41212C11.5377 1.41212 13.2707 1.32969 15.0037 1.16485C17.2398 1.05495 18.9169 1 20.0349 1C24.7308 1 28.7837 1.82424 32.1938 3.47271C35.6039 5.12119 38.2033 7.40159 39.9922 10.3139C41.7811 13.2262 42.6756 16.5232 42.6756 20.2048C42.6756 23.9963 41.7532 27.4031 39.9084 30.4253C38.0636 33.4475 35.4921 35.8103 32.1938 37.5138C28.9514 39.2172 25.2339 40.0689 21.0412 40.0689ZM20.0349 39.0798C25.5134 39.0798 29.79 37.5412 32.8646 34.4641C35.9952 31.332 37.5605 26.8811 37.5605 21.1114C37.5605 15.5615 36.0511 11.0008 33.0323 7.42906C30.0136 3.80241 25.4575 1.98908 19.3641 1.98908C16.6248 1.98908 14.6962 2.42868 13.5781 3.30787C12.516 4.18706 11.9849 5.75311 11.9849 8.00603V32.1562C11.9849 34.6839 12.516 36.4697 13.5781 37.5138C14.6962 38.5578 16.8485 39.0798 20.0349 39.0798Z" fill="black"/>
<path d="M70.4537 4.16721C71.7974 4.16721 73.0496 4.52744 74.2101 5.24788C75.4316 5.90829 76.0424 6.68877 76.0424 7.58933C76.0424 8.1897 75.7981 8.73004 75.3095 9.21033C74.8819 9.69063 74.2406 9.93078 73.3855 9.93078C72.7747 9.93078 72.225 9.78068 71.7364 9.4805C71.2477 9.12028 70.9423 8.91015 70.8202 8.85011C69.6597 7.94955 68.4992 7.49928 67.3387 7.49928C66.4836 7.49928 65.5674 7.8595 64.5901 8.57994C63.6739 9.30039 62.2386 10.8313 60.284 13.1728V32.4447C60.284 34.2458 60.4978 35.5967 60.9254 36.4972C61.3529 37.3377 62.1775 37.9081 63.3991 38.2083C64.6817 38.5085 66.6973 38.6586 69.4459 38.6586C69.6291 38.6586 69.7207 38.8387 69.7207 39.1989C69.7207 39.5591 69.6291 39.7392 69.4459 39.7392C67.4914 39.7392 65.9338 39.7092 64.7733 39.6492L58.1768 39.5591L53.321 39.6492C52.527 39.7092 51.4276 39.7392 50.0228 39.7392C49.8395 39.7392 49.7479 39.5591 49.7479 39.1989C49.7479 38.8387 49.8395 38.6586 50.0228 38.6586C51.794 38.6586 53.0767 38.5085 53.8707 38.2083C54.6648 37.9081 55.2145 37.3377 55.5199 36.4972C55.8253 35.5967 55.978 34.2458 55.978 32.4447V14.4336C55.978 12.3323 55.7336 10.8313 55.245 9.93078C54.7564 9.03022 53.9013 8.57994 52.6797 8.57994C51.7024 8.57994 49.9922 9.03022 47.5491 9.93078H47.3658C47.1215 9.93078 46.9383 9.8107 46.8161 9.57056C46.755 9.27037 46.8466 9.06024 47.091 8.94017L57.2606 4.25727C57.3828 4.19723 57.5355 4.16721 57.7187 4.16721C58.2074 4.16721 58.7571 4.85764 59.3678 6.2385C59.9786 7.55931 60.284 9.27037 60.284 11.3717V11.912C62.7883 8.91015 64.7733 6.86888 66.2392 5.78822C67.7051 4.70755 69.11 4.16721 70.4537 4.16721Z" fill="black"/>
<path d="M109.64 35.7005C109.792 35.7005 109.919 35.8002 110.02 35.9996C110.172 36.1492 110.198 36.2988 110.096 36.4484C106.495 39.2406 102.563 40.6367 98.3022 40.6367C94.7514 40.6367 91.7078 39.814 89.1714 38.1686C86.6858 36.4733 84.8089 34.2794 83.5408 31.5869C82.2726 28.8944 81.6385 26.0024 81.6385 22.911C81.6385 19.4706 82.4501 16.3044 84.0734 13.4124C85.7474 10.4706 87.9793 8.15205 90.7693 6.45677C93.5593 4.71162 96.5775 3.83905 99.824 3.83905C103.121 3.83905 105.581 4.76148 107.205 6.60635C108.879 8.40136 109.716 10.8944 109.716 14.0855C109.716 14.9332 109.411 15.357 108.803 15.357L86.5083 15.4318C86.1532 16.8279 85.9756 18.4983 85.9756 20.4429C85.9756 23.7836 86.559 26.8002 87.7257 29.4927C88.9432 32.1852 90.6679 34.3293 92.8998 35.9248C95.1318 37.4705 97.7442 38.2434 100.737 38.2434C104.288 38.2434 107.23 37.3957 109.564 35.7005H109.64ZM97.5413 5.33489C95.005 5.33489 92.773 6.13267 90.8454 7.72823C88.9178 9.32379 87.5482 11.5925 86.7365 14.5343L105.15 14.1603C105.252 11.3182 104.643 9.14928 103.324 7.65344C102.056 6.10774 100.128 5.33489 97.5413 5.33489Z" fill="black"/>
<path d="M151.15 4.73655C151.252 4.73655 151.302 4.88613 151.302 5.1853C151.302 5.48447 151.252 5.63405 151.15 5.63405C149.628 5.63405 148.36 6.00801 147.346 6.75593C146.382 7.45399 145.494 8.80025 144.683 10.7947L133.041 39.6644C132.99 39.8639 132.711 39.9636 132.204 39.9636C131.697 39.9636 131.418 39.8639 131.367 39.6644L117.595 10.9443C116.58 8.85011 115.692 7.45399 114.931 6.75593C114.171 6.00801 113.131 5.63405 111.812 5.63405C111.66 5.63405 111.583 5.48447 111.583 5.1853C111.583 4.88613 111.66 4.73655 111.812 4.73655L114.627 4.81134C115.845 4.91106 116.758 4.96092 117.366 4.96092C118.584 4.96092 120.106 4.91106 121.932 4.81134L124.899 4.73655C125.001 4.73655 125.051 4.88613 125.051 5.1853C125.051 5.48447 125.001 5.63405 124.899 5.63405C122.261 5.63405 120.943 6.4069 120.943 7.95261C120.943 8.65067 121.145 9.39858 121.551 10.1964L133.65 34.8029L143.237 10.346C143.541 9.49831 143.693 8.77532 143.693 8.17698C143.693 7.27948 143.288 6.63128 142.476 6.23239C141.664 5.8335 140.345 5.63405 138.519 5.63405C138.367 5.63405 138.291 5.48447 138.291 5.1853C138.291 4.88613 138.367 4.73655 138.519 4.73655L141.335 4.81134C142.755 4.91106 144.049 4.96092 145.215 4.96092C146.078 4.96092 147.117 4.91106 148.335 4.81134L151.15 4.73655Z" fill="black"/>
<path d="M164.936 41C161.332 41 158.492 39.7392 156.415 37.2177C154.399 34.6961 153.392 31.3941 153.392 27.3115C153.392 25.4504 153.544 23.7994 153.85 22.3585C154.522 18.8763 155.804 15.7244 157.698 12.9026C159.591 10.0809 161.882 7.8595 164.569 6.2385C167.257 4.61749 170.097 3.80699 173.09 3.80699C176.876 3.80699 179.808 5.06777 181.885 7.58933C183.962 10.0509 185 13.2628 185 17.2253C185 18.9063 184.817 20.6174 184.45 22.3585C183.717 26.0207 182.343 29.2928 180.327 32.1745C178.312 34.9963 175.93 37.1876 173.181 38.7486C170.494 40.2495 167.745 41 164.936 41ZM168.142 38.7486C170.708 38.7486 173.029 37.6379 175.105 35.4165C177.182 33.1952 178.587 30.1633 179.32 26.3209C179.625 24.3997 179.778 22.6587 179.778 21.0977C179.778 16.9551 178.953 13.4129 177.304 10.4711C175.716 7.46925 173.426 5.96833 170.433 5.96833C167.806 5.96833 165.455 7.10903 163.378 9.39044C161.301 11.6118 159.866 14.6437 159.072 18.4861C158.705 20.2872 158.522 22.1183 158.522 23.9795C158.522 28.002 159.377 31.4841 161.088 34.4259C162.798 37.3077 165.149 38.7486 168.142 38.7486Z" fill="black"/>
<path d="M21.0412 40.0689C19.4759 40.0689 17.7149 39.9865 15.7583 39.8216C15.0875 39.7667 14.249 39.7117 13.2427 39.6568C12.2365 39.6018 11.0905 39.5744 9.8047 39.5744L4.8573 39.6568C3.96285 39.7117 2.73299 39.7392 1.16771 39.7392C1.0559 39.7392 1 39.5744 1 39.2447C1 38.915 1.0559 38.7501 1.16771 38.7501C3.12431 38.7501 4.54983 38.6128 5.44428 38.338C6.33872 38.0633 6.95365 37.5413 7.28907 36.772C7.62449 35.9477 7.79219 34.7114 7.79219 33.0629V7.84118C7.79219 6.1927 7.62449 4.98382 7.28907 4.21453C6.95365 3.44524 6.33872 2.92322 5.44428 2.64848C4.54983 2.31878 3.15226 2.15393 1.25156 2.15393C1.13976 2.15393 1.08385 1.98909 1.08385 1.65939C1.08385 1.3297 1.13976 1.16485 1.25156 1.16485L4.94115 1.24727C6.95365 1.35717 8.57483 1.41212 9.8047 1.41212C11.5377 1.41212 13.2707 1.32969 15.0037 1.16485C17.2398 1.05495 18.9169 1 20.0349 1C24.7308 1 28.7837 1.82424 32.1938 3.47271C35.6039 5.12119 38.2033 7.40159 39.9922 10.3139C41.7811 13.2262 42.6756 16.5232 42.6756 20.2048C42.6756 23.9963 41.7532 27.4031 39.9084 30.4253C38.0636 33.4475 35.4921 35.8103 32.1938 37.5138C28.9514 39.2172 25.2339 40.0689 21.0412 40.0689ZM20.0349 39.0798C25.5134 39.0798 29.79 37.5412 32.8646 34.4641C35.9952 31.332 37.5605 26.8811 37.5605 21.1114C37.5605 15.5615 36.0511 11.0008 33.0323 7.42906C30.0136 3.80241 25.4575 1.98908 19.3641 1.98908C16.6248 1.98908 14.6962 2.42868 13.5781 3.30787C12.516 4.18706 11.9849 5.75311 11.9849 8.00603V32.1562C11.9849 34.6839 12.516 36.4697 13.5781 37.5138C14.6962 38.5578 16.8485 39.0798 20.0349 39.0798Z" stroke="black" stroke-width="2" mask="url(#path-1-outside-1_178_264)"/>
<path d="M70.4537 4.16721C71.7974 4.16721 73.0496 4.52744 74.2101 5.24788C75.4316 5.90829 76.0424 6.68877 76.0424 7.58933C76.0424 8.1897 75.7981 8.73004 75.3095 9.21033C74.8819 9.69063 74.2406 9.93078 73.3855 9.93078C72.7747 9.93078 72.225 9.78068 71.7364 9.4805C71.2477 9.12028 70.9423 8.91015 70.8202 8.85011C69.6597 7.94955 68.4992 7.49928 67.3387 7.49928C66.4836 7.49928 65.5674 7.8595 64.5901 8.57994C63.6739 9.30039 62.2386 10.8313 60.284 13.1728V32.4447C60.284 34.2458 60.4978 35.5967 60.9254 36.4972C61.3529 37.3377 62.1775 37.9081 63.3991 38.2083C64.6817 38.5085 66.6973 38.6586 69.4459 38.6586C69.6291 38.6586 69.7207 38.8387 69.7207 39.1989C69.7207 39.5591 69.6291 39.7392 69.4459 39.7392C67.4914 39.7392 65.9338 39.7092 64.7733 39.6492L58.1768 39.5591L53.321 39.6492C52.527 39.7092 51.4276 39.7392 50.0228 39.7392C49.8395 39.7392 49.7479 39.5591 49.7479 39.1989C49.7479 38.8387 49.8395 38.6586 50.0228 38.6586C51.794 38.6586 53.0767 38.5085 53.8707 38.2083C54.6648 37.9081 55.2145 37.3377 55.5199 36.4972C55.8253 35.5967 55.978 34.2458 55.978 32.4447V14.4336C55.978 12.3323 55.7336 10.8313 55.245 9.93078C54.7564 9.03022 53.9013 8.57994 52.6797 8.57994C51.7024 8.57994 49.9922 9.03022 47.5491 9.93078H47.3658C47.1215 9.93078 46.9383 9.8107 46.8161 9.57056C46.755 9.27037 46.8466 9.06024 47.091 8.94017L57.2606 4.25727C57.3828 4.19723 57.5355 4.16721 57.7187 4.16721C58.2074 4.16721 58.7571 4.85764 59.3678 6.2385C59.9786 7.55931 60.284 9.27037 60.284 11.3717V11.912C62.7883 8.91015 64.7733 6.86888 66.2392 5.78822C67.7051 4.70755 69.11 4.16721 70.4537 4.16721Z" stroke="black" stroke-width="2" mask="url(#path-1-outside-1_178_264)"/>
<path d="M109.64 35.7005C109.792 35.7005 109.919 35.8002 110.02 35.9996C110.172 36.1492 110.198 36.2988 110.096 36.4484C106.495 39.2406 102.563 40.6367 98.3022 40.6367C94.7514 40.6367 91.7078 39.814 89.1714 38.1686C86.6858 36.4733 84.8089 34.2794 83.5408 31.5869C82.2726 28.8944 81.6385 26.0024 81.6385 22.911C81.6385 19.4706 82.4501 16.3044 84.0734 13.4124C85.7474 10.4706 87.9793 8.15205 90.7693 6.45677C93.5593 4.71162 96.5775 3.83905 99.824 3.83905C103.121 3.83905 105.581 4.76148 107.205 6.60635C108.879 8.40136 109.716 10.8944 109.716 14.0855C109.716 14.9332 109.411 15.357 108.803 15.357L86.5083 15.4318C86.1532 16.8279 85.9756 18.4983 85.9756 20.4429C85.9756 23.7836 86.559 26.8002 87.7257 29.4927C88.9432 32.1852 90.6679 34.3293 92.8998 35.9248C95.1318 37.4705 97.7442 38.2434 100.737 38.2434C104.288 38.2434 107.23 37.3957 109.564 35.7005H109.64ZM97.5413 5.33489C95.005 5.33489 92.773 6.13267 90.8454 7.72823C88.9178 9.32379 87.5482 11.5925 86.7365 14.5343L105.15 14.1603C105.252 11.3182 104.643 9.14928 103.324 7.65344C102.056 6.10774 100.128 5.33489 97.5413 5.33489Z" stroke="black" stroke-width="2" mask="url(#path-1-outside-1_178_264)"/>
<path d="M151.15 4.73655C151.252 4.73655 151.302 4.88613 151.302 5.1853C151.302 5.48447 151.252 5.63405 151.15 5.63405C149.628 5.63405 148.36 6.00801 147.346 6.75593C146.382 7.45399 145.494 8.80025 144.683 10.7947L133.041 39.6644C132.99 39.8639 132.711 39.9636 132.204 39.9636C131.697 39.9636 131.418 39.8639 131.367 39.6644L117.595 10.9443C116.58 8.85011 115.692 7.45399 114.931 6.75593C114.171 6.00801 113.131 5.63405 111.812 5.63405C111.66 5.63405 111.583 5.48447 111.583 5.1853C111.583 4.88613 111.66 4.73655 111.812 4.73655L114.627 4.81134C115.845 4.91106 116.758 4.96092 117.366 4.96092C118.584 4.96092 120.106 4.91106 121.932 4.81134L124.899 4.73655C125.001 4.73655 125.051 4.88613 125.051 5.1853C125.051 5.48447 125.001 5.63405 124.899 5.63405C122.261 5.63405 120.943 6.4069 120.943 7.95261C120.943 8.65067 121.145 9.39858 121.551 10.1964L133.65 34.8029L143.237 10.346C143.541 9.49831 143.693 8.77532 143.693 8.17698C143.693 7.27948 143.288 6.63128 142.476 6.23239C141.664 5.8335 140.345 5.63405 138.519 5.63405C138.367 5.63405 138.291 5.48447 138.291 5.1853C138.291 4.88613 138.367 4.73655 138.519 4.73655L141.335 4.81134C142.755 4.91106 144.049 4.96092 145.215 4.96092C146.078 4.96092 147.117 4.91106 148.335 4.81134L151.15 4.73655Z" stroke="black" stroke-width="2" mask="url(#path-1-outside-1_178_264)"/>
<path d="M164.936 41C161.332 41 158.492 39.7392 156.415 37.2177C154.399 34.6961 153.392 31.3941 153.392 27.3115C153.392 25.4504 153.544 23.7994 153.85 22.3585C154.522 18.8763 155.804 15.7244 157.698 12.9026C159.591 10.0809 161.882 7.8595 164.569 6.2385C167.257 4.61749 170.097 3.80699 173.09 3.80699C176.876 3.80699 179.808 5.06777 181.885 7.58933C183.962 10.0509 185 13.2628 185 17.2253C185 18.9063 184.817 20.6174 184.45 22.3585C183.717 26.0207 182.343 29.2928 180.327 32.1745C178.312 34.9963 175.93 37.1876 173.181 38.7486C170.494 40.2495 167.745 41 164.936 41ZM168.142 38.7486C170.708 38.7486 173.029 37.6379 175.105 35.4165C177.182 33.1952 178.587 30.1633 179.32 26.3209C179.625 24.3997 179.778 22.6587 179.778 21.0977C179.778 16.9551 178.953 13.4129 177.304 10.4711C175.716 7.46925 173.426 5.96833 170.433 5.96833C167.806 5.96833 165.455 7.10903 163.378 9.39044C161.301 11.6118 159.866 14.6437 159.072 18.4861C158.705 20.2872 158.522 22.1183 158.522 23.9795C158.522 28.002 159.377 31.4841 161.088 34.4259C162.798 37.3077 165.149 38.7486 168.142 38.7486Z" stroke="black" stroke-width="2" mask="url(#path-1-outside-1_178_264)"/>
</svg>
