<svg width="94" height="60" viewBox="0 0 94 60" fill="none" xmlns="http://www.w3.org/2000/svg">
<path d="M1.00605 40.8304C1.22199 48.0359 5.92513 54.7042 12.5746 57.4848C17.9492 59.8138 23.9332 59.3533 29.1392 56.7646C35.0995 60.0559 42.6512 59.6367 48.3423 55.9676C50.9597 54.2813 53.1225 51.9798 54.6408 49.2649C56.1591 46.5501 56.9865 43.5049 57.0505 40.3965C57.0771 33.4566 57.0505 26.5227 57.0505 19.577C57.1354 16.7848 57.9062 14.0562 59.2951 11.631C60.6841 9.20568 62.6487 7.15797 65.0163 5.66779C69.7313 8.72297 72.8845 13.9123 72.9081 19.5799C72.9081 29.2798 72.9081 38.9973 72.9081 48.6971C72.9081 51.5457 73.9523 54.2673 76.0554 56.2214C77.5707 57.6691 79.5027 58.6061 81.5796 58.9005C83.6565 59.1949 85.7736 58.832 87.6329 57.8627C90.8363 56.186 93.0637 52.7323 92.9986 49.0897C92.9986 39.382 92.9986 29.6763 92.9986 19.9725C93.0356 15.5484 91.4884 11.2565 88.6356 7.86988C86.4147 5.2108 83.5094 3.20628 80.2322 2.07192C76.9549 0.937548 73.4298 0.716257 70.036 1.43186C68.292 1.78758 66.6118 2.40357 65.0518 3.25907C61.3899 1.42596 57.3434 0.561059 53.2673 1.21933C48.748 1.8755 44.6149 4.12886 41.62 7.56945C38.625 11.01 36.9673 15.4092 36.9482 19.9666C36.9334 26.7795 36.9482 33.5924 36.9482 40.4053C36.8812 43.2021 36.1181 45.9383 34.7275 48.3675C33.3369 50.7966 31.3626 52.8424 28.9824 54.3204C24.2763 51.2682 21.1468 46.0877 21.0788 40.4467C21.0551 30.4871 21.0965 20.4979 21.064 10.5384C20.854 5.92164 17.26 1.87168 12.6693 1.17209C8.93931 0.481354 4.82183 2.21115 2.7483 5.3903C1.60042 7.00763 0.989064 8.94318 1.00014 10.9251C1.00409 20.8886 1.00605 30.857 1.00605 40.8304ZM81.1668 4.72319C86.8875 7.33854 90.8275 13.2836 90.928 19.5711C90.928 29.4155 90.9458 39.2571 90.928 49.0897C90.9931 52.263 88.7421 55.2886 85.796 56.3808C84.6036 56.8284 83.3208 56.9832 82.0559 56.8321C80.791 56.681 79.581 56.2285 78.5282 55.5127C77.4754 54.7969 76.6105 53.8388 76.0066 52.7194C75.4028 51.6 75.0776 50.352 75.0586 49.0809C75.0586 39.2413 75.0586 29.4018 75.0586 19.5622C74.9813 16.6154 74.223 13.7263 72.8428 11.1201C71.4626 8.51391 69.4978 6.26106 67.1017 4.53723C71.5741 2.65099 76.7476 2.59785 81.1668 4.72319ZM39.0011 40.0393C39.0011 33.6121 39.0011 27.1869 39.0011 20.7636C39.0011 17.7232 39.569 14.7477 41.048 12.0615C43.0703 8.29596 46.4438 5.43212 50.4926 4.04389C54.5414 2.65566 58.9663 2.84558 62.8807 4.57559C58.0888 8.04994 55.0302 13.626 54.9711 19.5711C54.9711 26.5257 54.9711 33.4891 54.9711 40.4437C54.8993 43.2234 54.1412 45.9424 52.7642 48.3598C51.3872 50.7771 49.4338 52.818 47.0771 54.3015C44.7204 55.785 42.0333 56.6653 39.2541 56.8642C36.4749 57.0632 33.6894 56.5747 31.1447 55.4421C36.0076 51.9176 39.1401 46.0759 39.0011 40.0393ZM5.71808 5.17187C6.78865 4.20568 8.10299 3.54916 9.51964 3.27297C10.9363 2.99678 12.4016 3.11138 13.7578 3.60443C15.017 4.07922 16.137 4.86126 17.0154 5.87914C17.8938 6.89701 18.5026 8.11828 18.7864 9.43141C19.023 11.0756 18.9047 12.8054 18.9076 14.4673C18.9076 22.0713 18.9076 29.6763 18.9076 37.2823C18.8532 39.3548 18.972 41.4283 19.2626 43.4812C20.0731 47.7997 22.466 51.953 25.9505 54.6687C26.1783 54.9167 26.7285 55.1351 26.7226 55.5071C20.1263 58.3881 12.0866 56.6435 7.342 51.221C4.68314 48.242 3.17143 44.4171 3.07662 40.4289C3.07662 30.5992 3.07663 20.7597 3.07663 10.9103C3.0949 9.82343 3.33912 8.75219 3.7938 7.7644C4.24849 6.77662 4.90374 5.89381 5.71808 5.17187Z" fill="#1C1B1A" stroke="#1C1B1B"/>
</svg>
